<?xml version="1.0" encoding="utf-8"?>
<!-- Generator: Adobe Illustrator 16.0.0, SVG Export Plug-In . SVG Version: 6.00 Build 0)  -->
<!DOCTYPE svg PUBLIC "-//W3C//DTD SVG 1.1//EN" "http://www.w3.org/Graphics/SVG/1.1/DTD/svg11.dtd">
<svg version="1.1" xmlns="http://www.w3.org/2000/svg" xmlns:xlink="http://www.w3.org/1999/xlink" x="0px" y="0px"
	 width="160.916px" height="124.498px" viewBox="0 0 160.916 124.498" enable-background="new 0 0 160.916 124.498"
	 xml:space="preserve">
<g id="Слой_2" display="none">
	<g display="inline">
		<g>
			<path fill="#FFFFFF" d="M77.708,43.958l1,16.912l-1.883,4.506l-1.617-4.251l1.625-17.25c-1.542,0.25-2.909-0.383-3.318-0.5
				c-0.85,0.385-1.862,0.91-2.908,1.528c0.077-0.45,0.073-0.906-0.016-1.349c0.465-0.271,0.923-0.521,1.372-0.757
				c-2.4-1.097-4.344-3.009-5.487-5.385c-0.632,0.385-1.253,0.778-1.844,1.179c-0.866-0.497-1.7-0.97-2.356-1.341
				c-1.106,2.396-3.025,4.334-5.404,5.469c1.947,1.012,6.685,3.638,8.002,4.566c0.288,0.202,0.598,0.341,0.917,0.452v19.19
				c0,1.65,0.264,3.219,0.759,4.65c-0.014,0.15-0.023,0.309-0.023,0.465v4.309h0.028c-0.001,0.063-0.018,0.121-0.018,0.184
				l0.002,37.902c0,2.584,2.095,4.678,4.678,4.678c2.584,0,4.677-2.094,4.677-4.678l-0.001-37.902c0-0.063-0.016-0.121-0.018-0.184
				h0.703c-0.002,0.063-0.018,0.121-0.018,0.184l-0.003,37.902c0,2.584,2.095,4.678,4.676,4.678l0,0c2.584,0,4.68-2.094,4.68-4.676
				l0.002-37.902c0-0.064-0.018-0.123-0.02-0.186h0.055l0.006-4.896c0,0,0.824-1.109,0.824-5.127c0-2.158,0.221-10.209,0.221-10.209
				l0.021-8.802c-0.049-0.024-6.695-3.666-6.695-3.666S79.057,44.051,77.708,43.958z"/>
			<path fill="#FFFFFF" d="M52.926,44.114l1.75,15.537l-2.219,4.432l-2.094-4.691l1.813-15.184c-3.379,1.384-9.113,3.37-9.168,3.396
				c-0.596,0.281-1.231,0.423-1.885,0.423c-0.725,0-1.423-0.19-2.047-0.517l-0.015,0.015c-3.939-3.162-7.225-8.633-8.376-10.99
				c-0.954-1.966-3.323-2.785-5.289-1.831c-1.966,0.956-2.786,3.324-1.831,5.289c0.698,1.438,7.098,14.126,16.753,17.15
				c0.557,0.174,1.115,0.303,1.674,0.405c0.063,2.434,0.179,7.129,0.179,8.705c0,4.018,0.828,5.127,0.828,5.127l0.003,4.896h0.072
				c-0.001,0.063-0.018,0.123-0.018,0.188v37.904c0,2.584,2.095,4.678,4.678,4.678c2.584,0,4.678-2.094,4.678-4.682l-0.001-37.9
				c0-0.064-0.017-0.125-0.019-0.188h0.704c-0.002,0.063-0.019,0.123-0.019,0.188l-0.003,37.9c0,2.588,2.094,4.682,4.678,4.682
				c2.583,0,4.678-2.094,4.678-4.678V76.466c0-0.064-0.017-0.125-0.018-0.189h0.011v-4.309c0-0.156-0.01-0.313-0.023-0.463
				c0.495-1.434,0.76-3.004,0.76-4.65V47.302c-1.682,0.135-6.747-3.541-7.369-3.824C55.382,43.597,53.352,44.044,52.926,44.114z"/>
			<path fill="#FFFFFF" d="M40.996,46.77c0.527,0,1.063-0.114,1.569-0.355c0.052-0.024,3.334-1.575,6.467-3.013
				c-2.8-0.778-5.157-2.607-6.631-5.038c-1.627,0.76-2.852,1.337-2.98,1.399c-1.837,0.869-2.623,3.061-1.756,4.898
				C38.294,45.991,39.617,46.77,40.996,46.77z"/>
			<circle fill="#FFFFFF" cx="76.827" cy="32.732" r="10.196"/>
			<circle fill="#FFFFFF" cx="52.238" cy="32.732" r="10.196"/>
			<path fill="#FFFFFF" d="M104.417,43.352c3.166,1.453,6.523,3.039,6.576,3.063c0.508,0.241,1.043,0.354,1.572,0.354
				c1.377,0,2.695-0.777,3.326-2.108c0.865-1.836,0.084-4.031-1.754-4.898c-0.141-0.065-1.469-0.694-3.217-1.509
				C109.487,40.686,107.175,42.534,104.417,43.352z"/>
			<circle fill="#FFFFFF" cx="101.415" cy="32.732" r="10.196"/>
			<path fill="#FFFFFF" d="M129.319,33.906c-1.965-0.958-4.334-0.141-5.293,1.822c-1.27,2.596-5.115,8.958-9.576,11.864
				c-0.621,0.324-1.316,0.511-2.037,0.511c-0.656,0-1.291-0.143-1.887-0.423c-0.053-0.027-4.91-2.212-8.318-3.764l0.918,13.707
				l-1.713,5.043l-1.621-5.584l1.291-13.208c-1.369,0.006-2.572-0.383-2.979-0.5c-0.852,0.385-1.861,0.91-2.91,1.528
				c0.078-0.45,0.074-0.906-0.016-1.349c0.465-0.271,0.922-0.521,1.373-0.757c-2.402-1.097-4.346-3.009-5.488-5.385
				c-0.633,0.385-1.252,0.778-1.844,1.179c-0.867-0.497-1.701-0.97-2.357-1.341c-1.105,2.396-3.024,4.334-5.404,5.469
				c1.947,1.012,6.686,3.638,8.002,4.566c0.289,0.202,0.598,0.341,0.916,0.452v19.191c0,1.648,0.266,3.219,0.76,4.65
				c-0.014,0.15-0.023,0.307-0.023,0.463v4.309h0.029c-0.002,0.064-0.018,0.121-0.018,0.184l0.002,37.902
				c0,2.584,2.094,4.68,4.676,4.68c2.586,0,4.68-2.094,4.68-4.68l-0.004-37.898c0-0.064-0.016-0.121-0.02-0.184h0.703
				c0,0.063-0.018,0.119-0.018,0.184l-0.004,37.902c0,2.584,2.096,4.68,4.678,4.68h0.002c2.584,0,4.678-2.096,4.678-4.678
				l0.004-37.902c0-0.063-0.02-0.121-0.02-0.184h0.055l0.002-4.898c0,0,0.828-1.107,0.828-5.127c0-1.744,0.143-7.337,0.195-9.417
				c0.473-0.046,0.945-0.12,1.414-0.216l0.037,0.016c0.004-0.009,0.012-0.017,0.016-0.025c0.455-0.095,0.91-0.205,1.363-0.347
				c9.656-3.022,16.057-15.71,16.752-17.148C132.099,37.227,131.278,34.863,129.319,33.906z"/>
		</g>
	</g>
	<g display="inline">
		<g>
			<path fill="#FFFFFF" d="M127.761,28.586c-0.135,0.078-0.281,0.131-0.447,0.166c-0.162,0.03-0.33,0.046-0.502,0.039v0.865h1.158
				v2.96h1.242v-4.82h-0.975c-0.012,0.188-0.063,0.347-0.146,0.479C128.003,28.4,127.896,28.505,127.761,28.586z"/>
			<path fill="#FFFFFF" d="M134.782,33.644h-0.646v-7.246h0.646v-1.062h-0.783v-0.738c0,0-5.199-0.967-5.199-3.122
				c0-0.705,0.643-1.48,1.488-2.492l0.209,0.588l1.389-0.5l-0.084-0.238c2.273,0.132,4.158-0.472,5.619-1.801
				c3.643-3.319,3.24-9.94,3.221-10.219l-0.045-0.689h-4.246l0.223,0.911c0.094,0.396,0.053,0.723-0.141,1.022
				c-0.457,0.719-1.641,1.103-2.059,1.189h-0.002c0.004-0.277,0.004-0.558-0.002-0.846h1.012V7.233h-7.191V7.225h-7.193v1.169h1.014
				c-0.004,0.287-0.006,0.57-0.002,0.847h-0.002c-0.418-0.086-1.604-0.47-2.061-1.188c-0.189-0.301-0.232-0.627-0.141-1.025
				l0.221-0.91h-4.24l-0.049,0.688c-0.018,0.279-0.42,6.9,3.223,10.219c1.463,1.33,3.348,1.936,5.621,1.802l-0.086,0.238l1.391,0.5
				l0.207-0.588c0.848,1.012,1.49,1.787,1.49,2.492c0,2.154-5.199,3.123-5.199,3.123v0.738h-0.783v1.061h0.645v7.247h-0.645v1.201
				h-0.461v1.798h7.051v0.007h7.055v-1.798h-0.461v-1.202H134.782z M134.229,11.108h1.027v-0.576
				c0.693-0.227,1.809-0.721,2.416-1.678c0.244-0.384,0.387-0.807,0.416-1.254h1.096c-0.004,1.691-0.27,6.073-2.762,8.342
				c-1.211,1.102-2.832,1.564-4.824,1.391C132.716,15.811,133.833,13.836,134.229,11.108z M119.956,15.935
				c-2.496-2.269-2.76-6.65-2.762-8.341h1.096c0.027,0.446,0.172,0.87,0.414,1.254c0.609,0.957,1.723,1.451,2.416,1.678v0.576h1.027
				c0.398,2.73,1.516,4.705,2.631,6.226C122.788,17.5,121.169,17.037,119.956,15.935z M133.028,33.644h-4.84v-0.007h-4.838v-6.968
				h4.836v0.007h4.842V33.644z"/>
		</g>
	</g>
</g>
<g id="Capa_1">
	<g>
		<g>
			<g>
				<circle fill="#FFFFFF" cx="53.656" cy="25.985" r="9.955"/>
				<circle fill="#FFFFFF" cx="17.173" cy="60.227" r="6.361"/>
				<circle fill="#FFFFFF" cx="101.98" cy="25.985" r="9.955"/>
				<path fill="#FFFFFF" d="M125.501,68.926c1.349-0.969,1.389-2.774,0.729-4.191c-5.607-12.144-10.036-21.737-17.59-26.369
					c-0.197-0.123-0.404-0.213-0.611-0.295c-1.109-0.731-2.354-1.269-3.623-1.573c-0.008-0.001-0.019-0.001-0.024-0.003
					l-2.407,2.525l-2.479-2.499c-0.986,0.244-3.64,1.552-3.981,1.761c-0.407,0.249-0.809,0.5-1.202,0.757
					c-1.015,0.54-10.11,5.75-16.459,21.738c-6.17-15.507-14.922-20.858-16.339-21.643c-1.212-0.784-2.317-1.435-2.506-1.482
					c-0.906-0.505-1.881-0.889-2.869-1.13l-2.48,2.499l-2.404-2.525c-0.01,0.002-0.02,0.002-0.025,0.003
					c-1.269,0.305-2.513,0.84-3.623,1.573c-0.211,0.082-0.417,0.173-0.614,0.295c-7.551,4.633-11.981,14.225-17.59,26.369
					c-0.658,1.417-0.374,3.028,0.581,4.14c-3.047,2.659-10.594-1.759-11.228-1.913l-1.583,1.595l-1.538-1.616
					c-0.005,0.002-0.011,0.004-0.016,0.008c-1.081,0.256-4.077,2.242-5.136,2.874c-0.101,0.036-0.202,0.075-0.3,0.131
					c-0.223,0.128-5.505,3.244-5.505,12.369c0,1.248,1.012,2.263,2.261,2.263c1.25,0,2.263-1.013,2.263-2.263
					c0-3.016,0.707-5.05,1.46-6.368v3.212L8.168,93.4h2.818l0.002,16.217c0,1.611,1.306,2.918,2.917,2.918
					c1.612,0,2.919-1.307,2.919-2.918L16.822,93.4h0.416v16.217c0,1.611,1.307,2.918,2.916,2.918c1.617,0,2.921-1.307,2.921-2.918
					L23.077,93.4h3.231l-2.624-14.28v-4.191c0.913,0.335,1.888,0.549,2.924,0.549c2.165,0,4.617-0.932,7.439-3.627
					c0.597-0.568,0.839-1.365,0.733-2.126c0.694-0.379,1.282-0.975,1.64-1.75c2.504-5.423,4.749-10.276,7.05-14.216v13.39
					c0,1.038,0.203,2.009,0.554,2.904c-0.024,0.198-0.044,0.399-0.044,0.609l0.005,37.008c0,2.521,2.043,4.568,4.566,4.568
					c2.522,0,4.57-2.047,4.57-4.568l-0.002-31.763c0.179,0.01,0.362,0.027,0.542,0.027c0.036,0,0.072-0.006,0.104-0.006v31.743
					c0,2.52,2.045,4.566,4.568,4.566c0.003,0,0.003,0,0.003,0c2.52,0,4.566-2.047,4.566-4.566l0.002-36.782
					c0.599-1.107,0.948-2.365,0.948-3.739V53.114c0.019,0.051,0.012-0.49,0.007-1.385c2.378,3.001,5.078,7.385,7.352,13.622
					c0.58,1.591,2.084,2.577,3.686,2.577c0.443,0,0.9-0.072,1.342-0.236c0.669-0.245,1.219-0.663,1.643-1.169
					c0.422,0.49,0.958,0.892,1.61,1.128c0.441,0.164,0.897,0.24,1.345,0.24c1.602,0,3.104-0.99,3.684-2.581
					c2.132-5.853,4.655-10.084,6.937-13.07c0.138,0.344,0.231,0.706,0.266,1.087c0.025-0.071,0.047-0.147,0.072-0.217v8.384
					l-5.108,33.333c1.911,0.947,3.959,1.606,6.058,2.042v10.794c0,2.522,2.04,4.567,4.563,4.567c0,0,0,0,0.004,0
					c2.519,0,4.564-2.045,4.564-4.567V97.565c0.222-0.009,0.434-0.019,0.648-0.026v10.126c0,2.522,2.043,4.565,4.57,4.565
					c2.52,0.004,4.563-2.041,4.563-4.565l0.006-11.296c3.623-0.74,6.004-1.541,6.004-1.541l-5.496-34.6v-6.474
					c2.301,3.939,4.547,8.795,7.05,14.218c0.358,0.774,0.945,1.367,1.641,1.748C123.228,70.685,125.501,68.926,125.501,68.926z"/>
			</g>
		</g>
		<g>
			<g>
				<path fill="#FFFFFF" d="M147.018,54.214c-0.061-0.035-0.124-0.057-0.186-0.088c-0.865-0.573-1.839-0.996-2.827-1.24
					l-1.955,1.966l-1.895-1.989c-0.006,0.001-0.012,0.001-0.019,0.004c-1.018,0.244-2.017,0.679-2.904,1.275
					c-0.048,0.027-0.101,0.042-0.149,0.071c-3.571,2.193-9.527,10.548-9.324,15.237c0.073,1.758,0.938,3.175,2.376,3.895
					c0.65,0.323,1.36,0.491,2.154,0.491c2.279,0,5.263-1.372,9.572-4.32c0.068-0.047,0.124-0.105,0.188-0.158
					c0.063,0.053,0.118,0.111,0.188,0.158c4.31,2.948,7.293,4.32,9.573,4.32c0.794,0,1.502-0.168,2.15-0.491
					c1.438-0.72,2.307-2.138,2.382-3.895C156.546,64.763,150.59,56.407,147.018,54.214z M149.471,66.824
					c-1.03-0.597-2.161-1.215-3.797-2.333c-1.135-0.78-2.604-0.667-3.623,0.156c-1.018-0.821-2.485-0.935-3.625-0.156
					c-1.637,1.118-2.871,1.851-3.794,2.333c-0.418,0.104-0.938-0.436,0.682-1.273c1.091-0.686,2.513-1.574,2.724-1.719
					c1.202-0.823,2.839-0.874,4.093-0.158c0.586-0.335,1.252-0.515,1.927-0.515c0.775,0,1.525,0.232,2.165,0.673
					c0.354,0.239,1.772,1.14,2.558,1.698C150.553,66.555,150.137,67.209,149.471,66.824z"/>
				<path fill="#FFFFFF" d="M134.025,74.504v2.513c0,0.818,0.156,1.581,0.436,2.284c-0.018,0.156-0.034,0.314-0.034,0.48
					l-0.025,29.153c-0.002,1.985,1.608,3.599,3.597,3.601h0.004c1.985,0,3.597-1.61,3.597-3.597l0.022-25.022
					c0.142,0.007,0.285,0.019,0.432,0.019c0.029,0,0.057-0.006,0.085-0.006l-0.003,25.008c0,1.983,1.611,3.597,3.599,3.597
					c1.99,0,3.598-1.613,3.598-3.597l0.001-28.975c0.473-0.873,0.746-1.861,0.746-2.945v-2.556
					c-2.073-0.491-4.617-1.786-7.947-4.039C138.707,72.735,136.131,74.046,134.025,74.504z"/>
			</g>
		</g>
		<g>
			<g>
				<path fill="#FFFFFF" d="M148.098,41.09c-0.119-0.167-0.241-0.332-0.372-0.488h0.002c-0.142-0.673-0.894-1.555-0.894-1.555
					s0.012,0.364,0.008,0.671c-0.063-0.052-0.127-0.104-0.194-0.155c0-0.002,0-0.004,0-0.005c-0.254-1.557-1.587-2.512-1.587-2.512
					c0.226,0.227,0.255,1.098,0,0.742c-0.26-0.354-1.452-1.903-1.099-0.937c0.356,0.967-0.482,0.105-0.482,0.105
					s-1.101-3.075-1.452-2.041c-0.251,0.727-0.948,1.436-1.26,1.759c0.145-0.336,0.227-1.017,0.227-1.017s-0.194,0.581-1.196,1.259
					c-0.43,0.291-0.784,0.715-1.045,1.104c0.088-0.382,0.058-0.652-0.541,0.09c-1.07,1.322-1.4,1.872-1.448,1.484
					c-0.057-0.429,0.193-1,0.193-1c-0.549,0.747-0.943,1.814-1.142,2.426c0.005,0,0.009,0,0.013,0H136v0.003v0.151v8.614
					c1.355,1.861,3.546,3.075,6.027,3.075c2.507,0,4.719-1.241,6.072-3.14L148.098,41.09L148.098,41.09z"/>
				<path fill="#FFFFFF" d="M151.194,42.142c-0.275-5.515-4.101-9.454-9.3-9.454c-5.302,0-9.171,4.092-9.313,9.776
					c0.41-0.449,0.906-0.814,1.469-1.065c0.55-4.317,3.679-7.324,7.845-7.324c4.122,0,7.229,2.947,7.823,7.195
					C150.267,41.463,150.767,41.76,151.194,42.142z"/>
				<path fill="#FFFFFF" d="M149.765,41.655c-0.411-0.164-0.854-0.267-1.316-0.287v0.257v7.563v0.254
					c2.146-0.09,3.865-1.866,3.865-4.037c0-1.071-0.422-2.047-1.105-2.77C150.806,42.209,150.315,41.877,149.765,41.655z"/>
				<path fill="#FFFFFF" d="M135.654,49.442v-0.175v-7.72v-0.178c-0.593,0.026-1.148,0.183-1.647,0.437
					c-0.477,0.241-0.896,0.573-1.24,0.974c-0.608,0.708-0.979,1.624-0.979,2.626C131.786,47.577,133.506,49.352,135.654,49.442z"/>
			</g>
		</g>
	</g>
	<g display="none">
		<g display="inline">
			<g>
				<path fill="#FFFFFF" d="M59.007,37.52l0.999,16.881l-1.88,4.497l-1.614-4.242l1.622-17.218c-1.538,0.25-2.904-0.382-3.312-0.499
					c-0.849,0.385-1.858,0.908-2.903,1.525c0.076-0.449,0.072-0.904-0.017-1.347c0.464-0.271,0.921-0.52,1.369-0.755
					c-2.395-1.095-4.336-3.004-5.477-5.375c-0.631,0.385-1.252,0.777-1.841,1.177c-0.865-0.496-1.697-0.968-2.352-1.338
					c-1.104,2.392-3.019,4.326-5.394,5.459c1.943,1.01,6.674,3.631,7.987,4.558c0.286,0.202,0.597,0.34,0.915,0.451v19.155
					c0,1.645,0.265,3.213,0.758,4.642c-0.014,0.148-0.023,0.307-0.023,0.462v4.301h0.027c-0.001,0.063-0.019,0.122-0.019,0.184
					l0.002,37.833c0,2.578,2.092,4.671,4.67,4.671c2.579,0,4.669-2.091,4.669-4.671V70.035c0-0.062-0.017-0.121-0.019-0.184h0.701
					c-0.002,0.063-0.019,0.122-0.019,0.184l-0.002,37.833c0,2.578,2.09,4.671,4.669,4.671l0,0c2.578,0,4.669-2.091,4.669-4.669
					l0.002-37.833c0-0.063-0.018-0.123-0.02-0.186h0.054l0.006-4.887c0,0,0.825-1.105,0.825-5.119
					c0-2.151,0.219-10.188,0.219-10.188l0.023-8.786c-0.052-0.024-6.685-3.659-6.685-3.659S60.355,37.613,59.007,37.52z"/>
				<path fill="#FFFFFF" d="M34.272,37.676l1.747,15.508l-2.215,4.424l-2.09-4.683l1.81-15.156c-3.373,1.381-9.096,3.364-9.151,3.39
					c-0.594,0.281-1.229,0.422-1.881,0.422c-0.723,0-1.421-0.189-2.043-0.516l-0.014,0.015c-3.932-3.156-7.212-8.617-8.361-10.969
					c-0.952-1.962-3.316-2.78-5.279-1.828c-1.963,0.955-2.781,3.318-1.828,5.28c0.696,1.435,7.085,14.1,16.722,17.118
					c0.556,0.173,1.113,0.302,1.67,0.404c0.063,2.429,0.179,7.117,0.179,8.688c0,4.011,0.826,5.118,0.826,5.118l0.003,4.889h0.072
					c-0.001,0.063-0.018,0.121-0.018,0.188V107.8c0,2.58,2.091,4.67,4.669,4.67c2.58,0,4.67-2.09,4.67-4.672l-0.001-37.83
					c0-0.065-0.017-0.126-0.019-0.188h0.702c-0.002,0.063-0.019,0.121-0.019,0.188l-0.003,37.83c0,2.582,2.09,4.672,4.67,4.672
					c2.577,0,4.669-2.09,4.669-4.67V69.968c0-0.064-0.018-0.124-0.019-0.188h0.011v-4.302c0-0.157-0.01-0.313-0.022-0.464
					c0.494-1.43,0.759-2.997,0.759-4.642V40.859c-1.679,0.135-6.735-3.534-7.355-3.817C36.724,37.16,34.697,37.607,34.272,37.676z"
					/>
				<path fill="#FFFFFF" d="M22.363,40.327c0.526,0,1.061-0.113,1.566-0.354c0.051-0.024,3.328-1.572,6.455-3.008
					c-2.795-0.776-5.147-2.602-6.619-5.029c-1.624,0.759-2.847,1.334-2.975,1.397c-1.834,0.867-2.619,3.055-1.753,4.889
					C19.667,39.55,20.988,40.327,22.363,40.327z"/>
				<circle fill="#FFFFFF" cx="58.128" cy="26.315" r="10.177"/>
				<circle fill="#FFFFFF" cx="33.584" cy="26.315" r="10.177"/>
				<path fill="#FFFFFF" d="M85.67,36.915c3.158,1.45,6.511,3.033,6.562,3.058c0.51,0.241,1.044,0.353,1.571,0.353
					c1.374,0,2.689-0.775,3.32-2.104c0.862-1.833,0.083-4.023-1.752-4.889c-0.141-0.065-1.467-0.693-3.211-1.506
					C90.729,34.254,88.421,36.099,85.67,36.915z"/>
				<circle fill="#FFFFFF" cx="82.671" cy="26.315" r="10.177"/>
				<path fill="#FFFFFF" d="M110.523,27.487c-1.959-0.956-4.323-0.141-5.283,1.819c-1.266,2.591-5.105,8.941-9.559,11.842
					c-0.618,0.323-1.313,0.51-2.032,0.51c-0.655,0-1.289-0.143-1.882-0.422c-0.056-0.027-4.903-2.208-8.306-3.757l0.918,13.682
					l-1.711,5.034l-1.618-5.574l1.289-13.184c-1.366,0.006-2.567-0.382-2.974-0.499c-0.85,0.385-1.86,0.908-2.905,1.525
					c0.078-0.449,0.074-0.904-0.016-1.347c0.464-0.271,0.92-0.52,1.37-0.755c-2.397-1.095-4.337-3.004-5.478-5.375
					c-0.632,0.385-1.25,0.777-1.841,1.177c-0.865-0.496-1.698-0.968-2.353-1.338c-1.103,2.392-3.02,4.326-5.394,5.459
					c1.943,1.01,6.673,3.631,7.986,4.558c0.288,0.202,0.596,0.34,0.914,0.451v19.155c0,1.645,0.266,3.213,0.759,4.642
					c-0.014,0.148-0.023,0.307-0.023,0.462v4.301h0.029c-0.002,0.063-0.018,0.122-0.018,0.184l0.002,37.833
					c0,2.578,2.089,4.671,4.667,4.671c2.581,0,4.671-2.091,4.671-4.671l-0.003-37.829c0-0.063-0.017-0.123-0.021-0.184h0.702
					c0,0.061-0.019,0.12-0.019,0.182l-0.002,37.835c0,2.578,2.092,4.669,4.668,4.669h0.002c2.578,0,4.669-2.091,4.669-4.667
					l0.004-37.835c0-0.062-0.018-0.121-0.018-0.184h0.055l0.002-4.889c0,0,0.824-1.105,0.824-5.118c0-1.741,0.143-7.322,0.196-9.398
					c0.473-0.046,0.944-0.12,1.412-0.215l0.037,0.016c0.004-0.009,0.012-0.017,0.016-0.025c0.454-0.095,0.908-0.205,1.36-0.347
					c9.639-3.016,16.027-15.681,16.721-17.116C113.3,30.801,112.481,28.443,110.523,27.487z"/>
			</g>
		</g>
		<g display="inline">
			<g>
				<path fill="#FFFFFF" d="M108.969,22.177c-0.134,0.077-0.281,0.13-0.445,0.165c-0.164,0.03-0.329,0.046-0.501,0.039v0.864h1.153
					v2.955h1.242v-4.812h-0.974c-0.012,0.188-0.063,0.347-0.146,0.478C109.212,21.992,109.103,22.097,108.969,22.177z"/>
				<path fill="#FFFFFF" d="M115.977,27.225h-0.645v-7.233h0.645v-1.06h-0.781v-0.736c0,0-5.189-0.965-5.189-3.117
					c0-0.704,0.642-1.478,1.485-2.487l0.209,0.587l1.387-0.5l-0.085-0.238c2.269,0.132,4.151-0.471,5.608-1.797
					c3.637-3.313,3.235-9.921,3.216-10.201l-0.045-0.688h-4.238l0.223,0.909c0.091,0.396,0.051,0.722-0.141,1.02
					c-0.456,0.718-1.638,1.101-2.055,1.187h-0.002c0.004-0.276,0.004-0.557-0.002-0.844h1.01V0.864h-7.179V0.854h-7.182v1.167h1.014
					c-0.006,0.287-0.008,0.57-0.002,0.846h-0.004c-0.418-0.086-1.599-0.469-2.055-1.186c-0.189-0.3-0.232-0.625-0.141-1.023
					l0.22-0.908h-4.232l-0.048,0.687c-0.018,0.279-0.42,6.887,3.215,10.2c1.46,1.328,3.343,1.933,5.612,1.799l-0.086,0.237
					l1.387,0.5l0.209-0.587c0.846,1.01,1.484,1.784,1.484,2.488c0,2.149-5.188,3.117-5.188,3.117v0.736h-0.783v1.06h0.645v7.234
					h-0.645v1.199h-0.461v1.794h7.041v0.007h7.041v-1.794h-0.461v-1.2H115.977z M115.427,4.731h1.022V4.157
					c0.694-0.227,1.807-0.72,2.412-1.675c0.243-0.383,0.386-0.806,0.414-1.252h1.097c-0.007,1.688-0.27,6.063-2.757,8.327
					c-1.21,1.1-2.829,1.561-4.814,1.388C113.914,9.425,115.029,7.455,115.427,4.731z M101.179,9.548
					c-2.491-2.265-2.754-6.638-2.756-8.326h1.093c0.028,0.445,0.171,0.869,0.413,1.252c0.607,0.955,1.72,1.448,2.411,1.675v0.575
					h1.025c0.396,2.725,1.514,4.696,2.626,6.214C104.006,11.11,102.39,10.648,101.179,9.548z M114.227,27.225h-4.83v-0.007h-4.831
					v-6.956h4.827v0.007h4.834V27.225z"/>
			</g>
		</g>
	</g>
</g>
<g id="Слой_3" display="none">
	<g display="inline">
		<path fill="#FFFFFF" d="M100.757,35.067c-8.024,0-14.525-6.503-14.525-14.525c0-8.024,6.501-14.526,14.525-14.526v2.168
			c-6.827,0-12.359,5.532-12.359,12.358c0,6.825,5.532,12.358,12.359,12.358V35.067z M100.757,6.016
			c8.023,0,14.527,6.502,14.527,14.526c0,8.022-6.504,14.525-14.527,14.525V32.9c6.825,0,12.358-5.532,12.358-12.358
			s-5.533-12.358-12.358-12.358V6.016z"/>
		<path fill="#FFFFFF" d="M58.742,35.067c-8.024,0-14.527-6.503-14.527-14.525c0-8.024,6.503-14.526,14.527-14.526v2.168
			c-6.826,0-12.359,5.532-12.359,12.358c0,6.825,5.533,12.358,12.359,12.358V35.067z M58.742,35.067L58.742,35.067V32.9l0,0
			c6.824,0,12.357-5.532,12.357-12.358S65.565,8.184,58.742,8.184l0,0V6.016l0,0c8.021,0,14.525,6.502,14.525,14.526
			C73.267,28.564,66.764,35.067,58.742,35.067z"/>
		
			<rect x="62.33" y="19.664" transform="matrix(-0.9195 0.3931 -0.3931 -0.9195 133.0353 33.9631)" fill="#FF6800" width="1.421" height="21.879"/>
		<polygon fill="#FF6800" points="91.652,43.802 90.787,44.101 82.322,18.07 83.189,17.77 		"/>
		<polygon fill="#FF6800" points="83.69,18.184 82.388,17.135 65.65,38.269 66.954,39.319 		"/>
		<path fill="#FF6800" d="M100.513,20.032c-0.026,0.113,0.36,0.642,0.277,0.821c-1.847,4.018-17.41,23.37-32.874,20.605
			c-0.143-0.023-0.728-2.351-0.873-2.379C83.336,43.362,99.882,22.711,100.513,20.032z"/>
		<polygon fill="#FF6800" points="82.553,17.038 82.388,18.703 100.813,21.42 100.979,19.755 		"/>
		<path fill="#FF6800" d="M68.721,44.855l-5.491-12.645l0.843-0.36l5.734,13.208c0.2,0.458,0.03,1.235-0.656,1.287l-8.57,0.636
			l-0.167-0.951l8.003-0.585C68.841,45.416,68.872,45.203,68.721,44.855z"/>
		<path fill="#FFFFFF" d="M64.447,41.29c0.253-0.012,0.468,0.183,0.479,0.436c0.012,0.252-0.183,0.466-0.436,0.479
			c-0.03,0-0.062,0.006-0.098,0.011c-0.479,0.086-1.366,0.49-2.132,1.167c-0.742,0.657-1.352,1.567-1.295,2.682
			c0.005,0.127,0.021,0.255,0.043,0.382c0.043,0.248-0.122,0.486-0.369,0.531c-0.25,0.043-0.486-0.121-0.53-0.369
			c-0.032-0.172-0.051-0.339-0.06-0.5c-0.072-1.443,0.684-2.596,1.605-3.41c0.899-0.796,1.979-1.277,2.575-1.381
			C64.309,41.3,64.383,41.293,64.447,41.29z"/>
		<path fill="#FF6800" d="M94.302,45.012c-0.702-0.538-1.58-0.993-2.574-0.993c-0.996,0-2.127,0.459-3.343,1.752l-0.423-0.4
			c1.342-1.428,2.622-1.935,3.766-1.935c1.146,0,2.14,0.51,2.927,1.113L94.302,45.012z"/>
		<path fill="#FFFFFF" d="M100.757,17.693c-1.569,0-2.849,1.279-2.849,2.849c0,1.568,1.279,2.849,2.849,2.849
			c1.568,0,2.849-1.281,2.849-2.849C103.605,18.973,102.325,17.693,100.757,17.693z"/>
		<path fill="#FFFFFF" d="M58.742,17.693c-1.57,0-2.849,1.279-2.849,2.849c0,1.568,1.279,2.849,2.849,2.849
			c1.568,0,2.847-1.281,2.847-2.849C61.588,18.973,60.31,17.693,58.742,17.693z"/>
		<path fill="#FFFFFF" d="M82.783,16.326c-0.867,0-1.577,0.708-1.577,1.577c0,0.867,0.709,1.577,1.577,1.577s1.575-0.71,1.575-1.577
			C84.358,17.034,83.651,16.326,82.783,16.326z"/>
		<path fill="#FFFFFF" d="M82.783,20.767c-1.583,0-2.867-1.282-2.867-2.863c0-1.583,1.284-2.866,2.867-2.866v-0.435
			c-1.822,0-3.299,1.478-3.299,3.3s1.477,3.297,3.299,3.297V20.767z M82.783,15.037c1.58,0,2.864,1.282,2.864,2.866
			c0,1.583-1.284,2.864-2.864,2.864V21.2c1.82,0,3.299-1.476,3.299-3.297s-1.478-3.3-3.299-3.3V15.037z"/>
		<path fill="#FFFFFF" d="M96.343,46.048c0.51-0.55-0.818-2.217-1.83-1.782c-1.013,0.432-3.663,0.963-5.688,0.866
			c-2.022-0.096-2.891-0.336-3.13,0.482c-0.242,0.82,0.721,0.501,1.879,0.48C94.773,45.982,95.647,46.8,96.343,46.048z"/>
	</g>
	<g display="inline">
		<g>
			<circle fill="#FFFFFF" cx="79.588" cy="57.87" r="7.429"/>
			<path fill="#FFFFFF" d="M95.277,57.16c-0.23-1.576-3.175-12.907-5.929-11.965c-2.521,0-0.01,11.228,0.222,12.804
				c0.392,2.656-3.828,7.854-5.684,8.758c-0.762-0.468-1.595-0.819-2.448-1.028l-1.85,1.864l-1.795-1.885
				c-0.006,0.002-0.012,0.002-0.019,0.004c-0.81,0.193-1.606,0.52-2.34,0.949c-1.93-1.124-5.886-6.086-5.506-8.662
				c0.23-1.577,2.891-12.727-0.163-12.838c-3.29-0.12-5.313,10.423-5.545,11.999c-0.745,5.069,4.052,11.655,7.835,14.171
				c-0.041,0.279-0.071,0.563-0.071,0.857v16.397c0,0.776,0.151,1.501,0.415,2.166c-0.02,0.15-0.034,0.301-0.034,0.458l0.001,24.12
				c0,0-0.216,3.224,3.409,3.224c3.772,0,3.409-3.426,3.409-3.426l0-20.002c0.134,0.007,0.27,0.017,0.404,0.017
				c0.025,0,0.053-0.004,0.08-0.004v19.99c0,0-0.196,3.434,3.409,3.434c3.732,0,3.409-3.503,3.409-3.503l0.001-23.681
				c0.445-0.83,0.706-1.765,0.706-2.793V72.188c0-0.23-0.016-0.454-0.041-0.673c0.087-0.058,0.172-0.104,0.259-0.163
				C91.199,68.853,96.024,62.246,95.277,57.16z M79.606,82.297h-0.035l-1.792-2.452l1.387-9.276c0.139-0.375,0.198-0.769,0.175-1.17
				l0.229-1.531h0.035l1.791,11.978L79.606,82.297z"/>
		</g>
	</g>
</g>
</svg>
